<svg viewBox="0 0 1200 630" xmlns="http://www.w3.org/2000/svg" role="img" aria-label="Référencement local pour artisans">
  <defs>
    <pattern id="dg5" width="56" height="56" patternTransform="rotate(-45)" patternUnits="userSpaceOnUse">
      <rect width="56" height="56" fill="#1B2A4A"/>
      <rect width="56" height="4" fill="#12203B"/>
    </pattern>
  </defs>
  <rect width="1200" height="630" fill="url(#dg5)"/>
  <text x="70" y="120" font-family="Archivo Black, Arial Black, sans-serif" font-size="26" fill="#F5B301" letter-spacing="4">ARTISAN 5 ÉTOILES · LE BLOG</text>
  <text x="70" y="235" font-family="Archivo Black, Arial Black, sans-serif" font-size="64" fill="#FFFFFF">Sortez en 1er sur</text>
  <text x="70" y="318" font-family="Archivo Black, Arial Black, sans-serif" font-size="64" fill="#F5B301">« plombier + ville ».</text>
  <!-- épingle carte -->
  <g transform="translate(820,360)">
    <circle cx="130" cy="130" r="130" fill="#12203B"/>
    <path d="M130 40 C90 40 60 70 60 110 C60 165 130 230 130 230 C130 230 200 165 200 110 C200 70 170 40 130 40 Z" fill="#F5B301"/>
    <circle cx="130" cy="108" r="34" fill="#1B2A4A"/>
    <text x="130" y="120" text-anchor="middle" font-family="Archivo Black, Arial Black" font-size="30" fill="#F5B301">1</text>
  </g>
  <!-- podium classement -->
  <g transform="translate(70,410)">
    <rect x="0"   y="60" width="150" height="110" fill="#F5B301"/>
    <rect x="160" y="20" width="150" height="150" fill="#FFFFFF"/>
    <rect x="320" y="90" width="150" height="80"  fill="#5a6a8b"/>
    <text x="75"  y="130" text-anchor="middle" font-family="Archivo Black, Arial Black" font-size="34" fill="#1B2A4A">2</text>
    <text x="235" y="115" text-anchor="middle" font-family="Archivo Black, Arial Black" font-size="42" fill="#1B2A4A">1</text>
    <text x="395" y="145" text-anchor="middle" font-family="Archivo Black, Arial Black" font-size="28" fill="#FFFFFF">3</text>
  </g>
</svg>
